<svg xmlns="http://www.w3.org/2000/svg" width="25" height="22" viewBox="0 0 490 430">
  <path id="XMLID_25_" d="M316.554,108.336a15,15,0,0,1-4.3,20.774,58.608,58.608,0,0,0-9.621,7.929,15,15,0,0,1-21.428-21.006,88.693,88.693,0,0,1,14.562-11.992A15.011,15.011,0,0,1,316.554,108.336ZM447.022,285.869c-1.506,1.536-148.839,151.7-148.839,151.7a74.272,74.272,0,0,1-106.366,0L42.978,285.869c-57.3-58.406-57.3-153.441,0-211.847A145.608,145.608,0,0,1,245,67.648a145.608,145.608,0,0,1,202.021,6.373C504.326,132.428,504.326,227.463,447.022,285.869ZM425.6,95.028a115.628,115.628,0,0,0-165.812,0c-1.122,1.144-2.129,2.533-3.538,3.777-7.536,6.654-16.372,6.32-22.491,0-1.308-1.352-2.416-2.633-3.538-3.777a115.631,115.631,0,0,0-165.813,0c-45.94,46.824-45.94,123.012,0,169.836l148.839,151.7a44.255,44.255,0,0,0,63.514,0L425.6,264.864h0C471.535,218.04,471.535,141.852,425.6,95.028Zm-21.427,21.006a86.482,86.482,0,0,0-31.208-20.5,15,15,0,1,0-10.654,28.046,56.694,56.694,0,0,1,20.436,13.459,61.578,61.578,0,0,1,0,85.811l-52.648,53.661a15,15,0,0,0,21.426,21.006l52.648-53.661C438.744,208.616,438.744,151.275,404.169,116.034Z" transform="translate(0 -30)" fill="#fff"/>
</svg>
